# xmcd
#
# Track frame offsets:
# 150
# 11323
# 26723
# 39965
# 56585
# 68665
# 82933
# 118653
# 137668
# 168878
# 188718
# 213453
# 263330
# 279530
# 298265
#
# Disc length: 4289 seconds
#
#
# Revision: 0
# Processed by: cddbd v1.4PL0 Copyright (c) Steve Scherf et al.
# Submitted via: FreeRIP 2.52 
#
DISCID=c910bf0f
DTITLE=Michael Bloomfield - Essential Blues 1964 1969
DYEAR=1994
DGENRE=Blues
TTITLE0=I've Got You In The Palm Of My Hand
TTITLE1=Last Night
TTITLE2=Feel So Good
TTITLE3=Goin Down Slow
TTITLE4=I Got My Mojo Working
TTITLE5=Born In Chicago
TTITLE6=Work Song
TTITLE7=Killing Floor
TTITLE8=Alberts Shuffle
TTITLE9=Stop
TTITLE10=Mary Ann
TTITLE11=Dont Throw Your Love On Me So Strong
TTITLE12=Dont Think About It Baby
TTITLE13=It Takes Time
TTITLE14=Carmeleta Skiffle
EXTD=
EXTT0=
EXTT1=
EXTT2=
EXTT3=
EXTT4=
EXTT5=
EXTT6=
EXTT7=
EXTT8=
EXTT9=
EXTT10=
EXTT11=
EXTT12=
EXTT13=
EXTT14=
PLAYORDER=
